<?xml version="1.0" encoding="UTF-8"?>
<svg xmlns="http://www.w3.org/2000/svg" xmlns:xlink="http://www.w3.org/1999/xlink" version="1.1" viewBox="0 0 1000 200">
  <!-- Generator: Adobe Illustrator 30.0.0, SVG Export Plug-In . SVG Version: 2.1.1 Build 123)  -->
  <defs>
    <style>
      .st0 {
        fill: none;
      }

      .st1 {
        fill: #da0012;
      }

      .st2 {
        mix-blend-mode: multiply;
        opacity: .3;
      }

      .st3 {
        isolation: isolate;
      }

      .st4 {
        fill: #231815;
      }

      .st5 {
        fill: #fff;
      }

      .st6 {
        clip-path: url(#clippath);
      }
    </style>
    <clipPath id="clippath">
      <path class="st0" d="M982.1,58.1l-18.63,35.11-32.15,21.04-11.2-23.87h12.05l11.12-7.26h-57.19l-.09.17h-25.25l13.37-25.19h107.97ZM884.26,86.58l-2.02,3.81h33.32l11.74,25.02,11.79,25.25h-35.63l-11.85-25.25h-22.66l-7.86,14.81h-25.25l23.16-43.64h25.25Z"/>
    </clipPath>
  </defs>
  <g class="st3">
    <g id="_レイヤー_1" data-name="レイヤー_1">
      <g>
        <g>
          <path class="st5" d="M231.46,58.1l-8.68,34.76-8.68-34.76h-18.52l-17.94,71.84h18.52l1.87-7.49,6.81-27.27,6.81,27.27h0l1.87,7.49h18.52l1.87-7.49h0l6.81-27.27,6.81,27.27h0l1.87,7.49h18.52l-17.94-71.84h-18.52ZM407,58.1l-13.51,19.65-13.51-19.65h-22.38l5.15,7.49h0l19.55,28.43-24.7,35.92h22.38s5.15-7.49,5.15-7.49h0l8.36-12.16,8.36,12.16h0l5.15,7.49h22.38l-24.7-35.92,19.55-28.43h0l5.15-7.49h-22.38ZM299.46,58.1l-27.47,71.84h19.14l21.62-56.54,21.62,56.54h19.14l-27.47-71.84h-26.59Z"/>
          <path class="st5" d="M71.96,58.1h-26.59l-27.47,71.84h19.14l21.62-56.54,21.62,56.54h19.14l-27.47-71.84h0Z"/>
          <path class="st5" d="M173.57,58.1h-60.43c-3.76,3.97-5.87,6.19-9.64,10.16v24.47c3.76,3.97,5.87,6.19,9.64,10.16h43.65v9.29h-53.29v17.75h60.43c3.76-3.97,5.87-6.19,9.64-10.16v-24.47c-3.76-3.97-5.87-6.19-9.64-10.16h-43.65v-9.29h53.29v-17.75h0Z"/>
        </g>
        <g>
          <path class="st5" d="M506.17,89.75c-.55,0-1.1-.21-1.52-.63l-27.34-27.35c-.84-.84-.84-2.2,0-3.04.84-.84,2.2-.84,3.04,0l27.34,27.35c.84.84.84,2.2,0,3.04-.42.42-.97.63-1.52.63Z"/>
          <path class="st5" d="M546.36,129.93c-.55,0-1.1-.21-1.52-.63l-27.35-27.35c-.84-.84-.84-2.2,0-3.04.84-.84,2.2-.84,3.04,0l27.35,27.35c.84.84.84,2.2,0,3.04-.42.42-.97.63-1.52.63Z"/>
          <path class="st5" d="M519.01,89.76c-.55,0-1.1-.21-1.52-.63-.84-.84-.84-2.2,0-3.04l27.35-27.35c.84-.84,2.2-.84,3.04,0,.84.84.84,2.2,0,3.04l-27.35,27.35c-.42.42-.97.63-1.52.63Z"/>
          <path class="st5" d="M478.83,129.93c-.55,0-1.1-.21-1.52-.63-.84-.84-.84-2.2,0-3.04l27.35-27.35c.84-.84,2.2-.84,3.04,0,.84.84.84,2.2,0,3.04l-27.35,27.35c-.42.42-.97.63-1.52.63Z"/>
        </g>
        <g>
          <path class="st1" d="M982.1,58.1l-18.63,35.11-32.15,21.04-11.2-23.87h12.05l11.12-7.26h-57.19l-.09.17h-25.25l13.37-25.19h107.97ZM884.26,86.58l-2.02,3.81h33.32l11.74,25.02,11.79,25.25h-35.63l-11.85-25.25h-22.66l-7.86,14.81h-25.25l23.16-43.64h25.25Z"/>
          <g class="st2">
            <g class="st6">
              <g>
                <g>
                  <path class="st4" d="M851.84,70.55c-2.48.52-4.86.81-7.14.85,1.06-1.57,2.12-3.16,3.19-4.78,2.32-.29,4.75-.81,7.26-1.55-1.11,1.84-2.21,3.66-3.31,5.47Z"/>
                  <path class="st5" d="M848.35,76.26c-2.44.27-4.77.3-6.99.06,1.11-1.62,2.22-3.26,3.34-4.92,2.28-.04,4.66-.34,7.14-.85-1.17,1.92-2.33,3.83-3.49,5.71Z"/>
                  <path class="st4" d="M844.67,82.22c-2.38-.02-4.66-.29-6.81-.84,1.16-1.66,2.32-3.34,3.49-5.06,2.22.24,4.56.21,6.99-.06-1.23,2.01-2.46,3.99-3.68,5.96Z"/>
                  <path class="st5" d="M840.79,88.43c-2.31-.34-4.51-.95-6.58-1.86,1.21-1.69,2.43-3.42,3.65-5.18,2.15.55,4.42.82,6.81.84-1.3,2.09-2.6,4.16-3.89,6.21Z"/>
                  <path class="st4" d="M836.68,94.88c-2.23-.72-4.33-1.71-6.29-3.03,1.26-1.72,2.53-3.49,3.82-5.29,2.07.91,4.26,1.52,6.58,1.86-1.38,2.18-2.75,4.34-4.1,6.45Z"/>
                </g>
                <g>
                  <path class="st5" d="M860.48,68.04c-2.99,1.09-5.87,1.94-8.63,2.52,1.1-1.81,2.2-3.63,3.31-5.47,2.79-.82,5.69-1.89,8.69-3.18-1.12,2.06-2.24,4.1-3.36,6.14Z"/>
                  <path class="st4" d="M856.91,74.52c-2.97.85-5.82,1.45-8.55,1.74,1.16-1.88,2.32-3.79,3.49-5.71,2.77-.58,5.65-1.43,8.63-2.52-1.19,2.17-2.38,4.33-3.57,6.48Z"/>
                  <path class="st5" d="M853.1,81.37c-2.94.57-5.75.87-8.43.85,1.22-1.96,2.45-3.95,3.68-5.96,2.73-.3,5.58-.89,8.55-1.74-1.27,2.3-2.54,4.58-3.8,6.85Z"/>
                  <path class="st4" d="M849.05,88.61c-2.89.25-5.65.2-8.26-.19,1.29-2.04,2.58-4.11,3.89-6.21,2.68.02,5.49-.28,8.43-.85-1.35,2.43-2.71,4.85-4.05,7.24Z"/>
                  <path class="st5" d="M844.73,96.27c-2.83-.13-5.52-.58-8.04-1.39,1.36-2.12,2.73-4.27,4.1-6.45,2.61.39,5.37.43,8.26.19-1.45,2.57-2.89,5.13-4.33,7.66Z"/>
                </g>
                <g>
                  <path class="st4" d="M870.88,63.54c-3.59,1.76-7.06,3.27-10.41,4.49,1.12-2.04,2.24-4.08,3.36-6.14,3.34-1.45,6.81-3.16,10.37-5.1-1.11,2.25-2.21,4.5-3.32,6.75Z"/>
                  <path class="st5" d="M867.32,70.75c-3.6,1.54-7.08,2.82-10.42,3.77,1.19-2.15,2.38-4.31,3.57-6.48,3.35-1.22,6.82-2.74,10.41-4.49-1.19,2.41-2.37,4.81-3.56,7.2Z"/>
                  <path class="st4" d="M863.5,78.45c-3.6,1.28-7.08,2.27-10.4,2.92,1.26-2.27,2.53-4.55,3.8-6.85,3.34-.96,6.82-2.23,10.42-3.77-1.27,2.57-2.55,5.14-3.82,7.7Z"/>
                  <path class="st5" d="M859.38,86.7c-3.6.97-7.05,1.63-10.33,1.91,1.35-2.4,2.7-4.81,4.05-7.24,3.32-.65,6.79-1.64,10.4-2.92-1.37,2.76-2.74,5.51-4.12,8.25Z"/>
                  <path class="st4" d="M854.94,95.56c-3.57.6-6.99.86-10.22.71,1.44-2.53,2.88-5.08,4.33-7.66,3.28-.28,6.74-.94,10.33-1.91-1.48,2.96-2.96,5.92-4.44,8.86Z"/>
                </g>
                <g>
                  <path class="st5" d="M883.39,56.77c-4.29,2.51-8.47,4.79-12.51,6.77,1.11-2.25,2.21-4.49,3.32-6.75,4-2.18,8.12-4.63,12.35-7.29-1.05,2.42-2.1,4.84-3.16,7.26Z"/>
                  <path class="st4" d="M879.98,64.61c-4.35,2.32-8.58,4.4-12.65,6.14,1.19-2.4,2.37-4.8,3.56-7.2,4.04-1.98,8.22-4.26,12.51-6.77-1.14,2.61-2.27,5.22-3.41,7.84Z"/>
                  <path class="st5" d="M876.28,73.08c-4.41,2.09-8.67,3.91-12.78,5.37,1.27-2.56,2.55-5.13,3.82-7.7,4.08-1.74,8.3-3.82,12.65-6.14-1.23,2.82-2.47,5.65-3.7,8.48Z"/>
                  <path class="st4" d="M872.25,82.28c-4.45,1.81-8.75,3.32-12.86,4.43,1.37-2.74,2.74-5.49,4.12-8.25,4.1-1.46,8.37-3.28,12.78-5.37-1.34,3.06-2.68,6.13-4.03,9.19Z"/>
                  <path class="st5" d="M867.85,92.28c-4.49,1.46-8.8,2.59-12.91,3.28,1.48-2.94,2.96-5.89,4.44-8.86,4.11-1.11,8.41-2.62,12.86-4.43-1.46,3.33-2.93,6.67-4.39,10.01Z"/>
                </g>
                <g>
                  <path class="st4" d="M898.4,47.5c-5.13,3.3-10.14,6.43-15.01,9.27,1.05-2.42,2.11-4.84,3.16-7.26,4.77-3,9.68-6.26,14.68-9.67-.94,2.55-1.88,5.1-2.83,7.66Z"/>
                  <path class="st5" d="M895.31,55.84c-5.25,3.15-10.37,6.12-15.33,8.76,1.14-2.61,2.28-5.23,3.41-7.84,4.87-2.84,9.88-5.97,15.01-9.27-1.03,2.77-2.05,5.55-3.09,8.35Z"/>
                  <path class="st4" d="M891.93,64.97c-5.37,2.96-10.6,5.71-15.66,8.11,1.24-2.83,2.47-5.65,3.7-8.48,4.96-2.65,10.09-5.61,15.33-8.76-1.12,3.03-2.25,6.07-3.38,9.13Z"/>
                  <path class="st5" d="M888.21,74.99c-5.49,2.72-10.83,5.2-15.97,7.29,1.35-3.07,2.69-6.13,4.03-9.19,5.05-2.4,10.28-5.15,15.66-8.11-1.23,3.33-2.47,6.67-3.72,10.02Z"/>
                  <path class="st4" d="M884.11,86.04c-5.61,2.4-11.05,4.54-16.26,6.24,1.47-3.34,2.93-6.67,4.39-10.01,5.14-2.09,10.47-4.57,15.97-7.29-1.36,3.67-2.73,7.35-4.1,11.05Z"/>
                </g>
                <g>
                  <path class="st5" d="M916.38,35.68c-6.12,4.05-12.12,8.04-17.99,11.81.95-2.56,1.89-5.11,2.83-7.66,5.69-3.88,11.52-7.96,17.44-12.08-.76,2.63-1.52,5.27-2.28,7.93Z"/>
                  <path class="st4" d="M913.87,44.41c-6.32,3.93-12.52,7.81-18.56,11.43,1.03-2.79,2.06-5.57,3.09-8.35,5.86-3.77,11.87-7.77,17.99-11.81-.83,2.89-1.67,5.8-2.51,8.73Z"/>
                  <path class="st5" d="M911.09,54.06c-6.54,3.77-12.94,7.48-19.16,10.91,1.13-3.05,2.26-6.1,3.38-9.13,6.04-3.63,12.24-7.5,18.56-11.43-.92,3.2-1.85,6.41-2.78,9.65Z"/>
                  <path class="st4" d="M908,64.79c-6.77,3.55-13.38,7.03-19.78,10.2,1.24-3.35,2.48-6.69,3.72-10.02,6.22-3.43,12.62-7.14,19.16-10.91-1.02,3.55-2.05,7.13-3.09,10.73Z"/>
                  <path class="st5" d="M904.54,76.79c-7,3.25-13.83,6.43-20.43,9.26,1.37-3.7,2.74-7.38,4.1-11.05,6.4-3.17,13.02-6.65,19.78-10.2-1.14,3.97-2.3,7.97-3.46,12Z"/>
                </g>
                <g>
                  <path class="st4" d="M937.98,21.7c-7.32,4.57-14.53,9.31-21.59,13.98.77-2.66,1.53-5.3,2.28-7.93,6.8-4.73,13.72-9.53,20.75-14.18-.48,2.69-.96,5.4-1.44,8.12Z"/>
                  <path class="st5" d="M936.38,30.75c-7.64,4.44-15.15,9.09-22.5,13.66.84-2.92,1.68-5.83,2.51-8.73,7.06-4.67,14.28-9.42,21.59-13.98-.53,2.99-1.06,6.01-1.6,9.05Z"/>
                  <path class="st4" d="M934.58,40.88c-7.98,4.25-15.83,8.76-23.49,13.18.93-3.24,1.86-6.45,2.78-9.65,7.35-4.57,14.87-9.22,22.5-13.66-.59,3.35-1.19,6.73-1.79,10.14Z"/>
                  <path class="st5" d="M932.56,52.32c-8.36,3.99-16.57,8.28-24.56,12.47,1.04-3.6,2.07-7.18,3.09-10.73,7.66-4.42,15.51-8.92,23.49-13.18-.67,3.77-1.34,7.58-2.02,11.43Z"/>
                  <path class="st4" d="M930.26,65.31c-8.77,3.61-17.37,7.6-25.72,11.47,1.16-4.03,2.32-8.03,3.46-12,7.99-4.19,16.2-8.48,24.56-12.47-.76,4.28-1.53,8.62-2.3,13Z"/>
                </g>
                <g>
                  <path class="st5" d="M964.09,6.76c-8.84,4.49-17.56,9.6-26.12,14.94.48-2.73.96-5.44,1.44-8.12,8.15-5.39,16.45-10.59,24.85-15.27-.06,2.79-.11,5.6-.17,8.45Z"/>
                  <path class="st4" d="M963.9,16.34c-9.33,4.22-18.52,9.17-27.52,14.41.54-3.04,1.07-6.06,1.6-9.05,8.56-5.34,17.28-10.45,26.12-14.94-.06,3.15-.13,6.34-.2,9.57Z"/>
                  <path class="st5" d="M963.66,27.27c-9.87,3.83-19.59,8.55-29.08,13.61.6-3.41,1.2-6.79,1.79-10.14,9-5.23,18.19-10.19,27.52-14.41-.08,3.59-.15,7.24-.23,10.93Z"/>
                  <path class="st4" d="M963.38,39.87c-10.49,3.28-20.78,7.65-30.83,12.45.68-3.85,1.36-7.66,2.02-11.43,9.49-5.06,19.21-9.78,29.08-13.61-.09,4.13-.18,8.33-.28,12.6Z"/>
                  <path class="st5" d="M963.05,54.55c-11.18,2.51-22.14,6.37-32.79,10.76.78-4.38,1.54-8.71,2.3-13,10.04-4.79,20.34-9.16,30.83-12.45-.11,4.81-.22,9.7-.33,14.68Z"/>
                </g>
                <g>
                  <path class="st4" d="M996.33-6.08c-10.96,3.01-21.72,7.5-32.24,12.84.06-2.85.12-5.67.17-8.45,9.91-5.51,20.01-10.32,30.29-13.9.59,3.11,1.18,6.28,1.78,9.51Z"/>
                  <path class="st5" d="M998.35,5.02c-11.75,2.21-23.24,6.25-34.46,11.32.07-3.23.13-6.42.2-9.57,10.52-5.34,21.27-9.84,32.24-12.84.67,3.62,1.34,7.32,2.02,11.1Z"/>
                  <path class="st4" d="M1000.68,18.14c-12.67,1.1-25.01,4.47-37.02,9.13.08-3.7.16-7.34.23-10.93,11.21-5.07,22.7-9.11,34.46-11.32.77,4.26,1.54,8.63,2.33,13.12Z"/>
                  <path class="st5" d="M1003.38,33.88c-13.75-.48-27.08,1.95-40,5.99.1-4.27.19-8.47.28-12.6,12-4.66,24.35-8.03,37.02-9.13.89,5.09,1.79,10.34,2.71,15.74Z"/>
                  <path class="st4" d="M1006.58,53.09c-15.05-2.72-29.55-1.67-43.53,1.46.12-4.98.23-9.88.33-14.68,12.91-4.04,26.25-6.47,40-5.99,1.05,6.19,2.11,12.59,3.2,19.21Z"/>
                </g>
                <g>
                  <path class="st5" d="M832.35,101.58c-2.12-1.14-4.11-2.58-5.95-4.36,1.31-1.74,2.64-3.53,3.99-5.37,1.96,1.31,4.06,2.31,6.29,3.03-1.46,2.27-2.9,4.5-4.33,6.7Z"/>
                  <path class="st4" d="M827.77,108.5c-1.99-1.63-3.84-3.57-5.53-5.87,1.37-1.75,2.75-3.55,4.16-5.42,1.84,1.77,3.82,3.21,5.95,4.36-1.54,2.36-3.07,4.67-4.58,6.93Z"/>
                  <path class="st5" d="M822.94,115.64c-1.83-2.19-3.51-4.71-5.02-7.59,1.42-1.74,2.86-3.54,4.32-5.41,1.69,2.29,3.54,4.24,5.53,5.87-1.63,2.43-3.24,4.81-4.83,7.13Z"/>
                  <path class="st4" d="M817.85,122.93c-1.64-2.83-3.12-6-4.42-9.54,1.47-1.7,2.96-3.48,4.48-5.34,1.51,2.88,3.19,5.4,5.02,7.59-1.72,2.5-3.41,4.94-5.09,7.3Z"/>
                </g>
                <g>
                  <path class="st4" d="M840.1,104.36c-2.75-.57-5.34-1.49-7.75-2.79,1.43-2.19,2.88-4.43,4.33-6.7,2.53.81,5.21,1.26,8.04,1.39-1.55,2.73-3.09,5.42-4.62,8.09Z"/>
                  <path class="st5" d="M835.16,112.92c-2.64-1.09-5.1-2.54-7.39-4.41,1.51-2.26,3.04-4.57,4.58-6.93,2.42,1.3,5.01,2.21,7.75,2.79-1.66,2.88-3.31,5.74-4.95,8.55Z"/>
                  <path class="st4" d="M829.86,121.94c-2.5-1.7-4.81-3.78-6.92-6.3,1.59-2.32,3.2-4.7,4.83-7.13,2.28,1.87,4.75,3.32,7.39,4.41-1.78,3.05-3.54,6.06-5.29,9.02Z"/>
                  <path class="st5" d="M824.19,131.44c-2.32-2.41-4.43-5.22-6.34-8.5,1.67-2.36,3.37-4.79,5.09-7.3,2.11,2.52,4.42,4.61,6.92,6.3-1.91,3.22-3.8,6.39-5.67,9.5Z"/>
                </g>
                <g>
                  <path class="st5" d="M850.14,105.08c-3.53.15-6.88-.06-10.03-.72,1.53-2.67,3.08-5.37,4.62-8.09,3.23.15,6.64-.11,10.22-.71-1.6,3.19-3.2,6.36-4.8,9.52Z"/>
                  <path class="st4" d="M844.93,115.33c-3.46-.38-6.72-1.16-9.77-2.42,1.64-2.82,3.29-5.67,4.95-8.55,3.15.66,6.51.87,10.03.72-1.74,3.43-3.48,6.85-5.21,10.25Z"/>
                  <path class="st5" d="M839.26,126.38c-3.35-1.02-6.5-2.47-9.4-4.44,1.75-2.96,3.52-5.97,5.29-9.02,3.05,1.26,6.31,2.04,9.77,2.42-1.89,3.71-3.78,7.39-5.66,11.05Z"/>
                  <path class="st4" d="M833.09,138.31c-3.21-1.79-6.19-4.05-8.9-6.87,1.88-3.11,3.77-6.28,5.67-9.5,2.9,1.97,6.05,3.43,9.4,4.44-2.06,4.01-4.12,7.98-6.17,11.92Z"/>
                </g>
                <g>
                  <path class="st4" d="M863.04,103.2c-4.5,1.03-8.82,1.7-12.9,1.88,1.6-3.16,3.2-6.33,4.8-9.52,4.11-.69,8.43-1.82,12.91-3.28-1.6,3.64-3.21,7.28-4.81,10.92Z"/>
                  <path class="st5" d="M857.75,115.17c-4.5.5-8.79.6-12.82.16,1.73-3.4,3.47-6.82,5.21-10.25,4.09-.18,8.4-.85,12.9-1.88-1.76,3.99-3.52,7.98-5.29,11.97Z"/>
                  <path class="st4" d="M851.9,128.33c-4.47-.15-8.69-.75-12.64-1.95,1.88-3.66,3.77-7.34,5.66-11.05,4.03.44,8.32.34,12.82-.16-1.94,4.39-3.89,8.77-5.84,13.16Z"/>
                  <path class="st5" d="M845.42,142.86c-4.39-.97-8.52-2.43-12.33-4.55,2.05-3.94,4.11-7.92,6.17-11.92,3.94,1.2,8.17,1.8,12.64,1.95-2.16,4.84-4.32,9.69-6.48,14.53Z"/>
                </g>
                <g>
                  <path class="st5" d="M879.56,98.29c-5.72,2-11.25,3.7-16.52,4.91,1.61-3.64,3.21-7.28,4.81-10.92,5.21-1.7,10.65-3.84,16.26-6.24-1.51,4.06-3.03,8.15-4.55,12.25Z"/>
                  <path class="st4" d="M874.47,111.94c-5.82,1.48-11.42,2.64-16.73,3.23,1.77-3.99,3.53-7.98,5.29-11.97,5.27-1.21,10.79-2.91,16.52-4.91-1.68,4.53-3.38,9.08-5.08,13.65Z"/>
                  <path class="st5" d="M868.76,127.25c-5.9.82-11.55,1.27-16.86,1.08,1.95-4.39,3.9-8.77,5.84-13.16,5.31-.59,10.9-1.75,16.73-3.23-1.89,5.07-3.79,10.18-5.71,15.3Z"/>
                  <path class="st4" d="M862.31,144.52c-5.95-.04-11.61-.49-16.89-1.66,2.17-4.84,4.33-9.68,6.48-14.53,5.32.18,10.96-.27,16.86-1.08-2.14,5.72-4.29,11.48-6.46,17.27Z"/>
                </g>
                <g>
                  <path class="st4" d="M900.64,90.29c-7.25,2.85-14.31,5.63-21.08,8,1.53-4.1,3.04-8.19,4.55-12.25,6.59-2.82,13.42-6,20.43-9.26-1.29,4.47-2.59,8.97-3.9,13.51Z"/>
                  <path class="st5" d="M896.22,105.61c-7.51,2.32-14.79,4.56-21.75,6.33,1.7-4.57,3.4-9.12,5.08-13.65,6.78-2.37,13.83-5.15,21.08-8-1.46,5.06-2.93,10.17-4.42,15.32Z"/>
                  <path class="st4" d="M891.16,123.14c-7.76,1.6-15.26,3.12-22.4,4.11,1.91-5.13,3.82-10.23,5.71-15.3,6.96-1.77,14.24-4.01,21.75-6.33-1.67,5.78-3.35,11.62-5.06,17.52Z"/>
                  <path class="st5" d="M885.31,143.38c-8.02.63-15.73,1.19-23,1.14,2.17-5.79,4.32-11.55,6.46-17.27,7.13-.99,14.63-2.51,22.4-4.11-1.93,6.67-3.87,13.41-5.85,20.24Z"/>
                </g>
                <g>
                  <path class="st5" d="M927.62,80.22c-9.22,3.09-18.25,6.64-26.98,10.07,1.31-4.54,2.61-9.04,3.9-13.51,8.35-3.88,16.95-7.86,25.72-11.47-.87,4.91-1.75,9.88-2.64,14.91Z"/>
                  <path class="st4" d="M924.56,97.49c-9.72,2.36-19.2,5.3-28.34,8.12,1.49-5.15,2.96-10.26,4.42-15.32,8.73-3.43,17.75-6.98,26.98-10.07-1.01,5.67-2.02,11.43-3.06,17.27Z"/>
                  <path class="st5" d="M920.97,117.74c-10.26,1.35-20.24,3.43-29.81,5.4,1.7-5.9,3.39-11.74,5.06-17.52,9.14-2.82,18.62-5.76,28.34-8.12-1.18,6.64-2.37,13.39-3.59,20.24Z"/>
                  <path class="st4" d="M916.71,141.79c-10.85-.09-21.37.8-31.4,1.58,1.97-6.83,3.92-13.57,5.85-20.24,9.57-1.97,19.56-4.06,29.81-5.4-1.39,7.87-2.81,15.89-4.26,24.06Z"/>
                </g>
                <g>
                  <path class="st4" d="M962.64,71.88c-11.97,1.41-23.68,4.54-35.03,8.34.89-5.03,1.77-10,2.64-14.91,10.66-4.39,21.61-8.25,32.79-10.76-.13,5.66-.27,11.43-.41,17.32Z"/>
                  <path class="st5" d="M962.13,92.63c-12.89-.15-25.45,1.92-37.58,4.86,1.03-5.84,2.05-11.6,3.06-17.27,11.34-3.8,23.05-6.93,35.03-8.34-.16,6.75-.33,13.67-.51,20.75Z"/>
                  <path class="st4" d="M961.49,117.93c-13.96-2.42-27.51-1.9-40.52-.19,1.21-6.86,2.41-13.61,3.59-20.24,12.12-2.95,24.69-5.02,37.58-4.86-.2,8.2-.42,16.63-.64,25.3Z"/>
                  <path class="st5" d="M960.66,149.45c-15.22-5.79-29.92-7.54-43.95-7.66,1.45-8.17,2.87-16.19,4.26-24.06,13.01-1.71,26.56-2.23,40.52.19-.26,10.16-.54,20.66-.83,31.53Z"/>
                </g>
                <g>
                  <path class="st5" d="M1010.42,77.05c-16.64-6.01-32.55-6.97-47.78-5.17.14-5.89.28-11.67.41-17.32,13.98-3.13,28.48-4.19,43.53-1.46,1.25,7.67,2.53,15.65,3.84,23.96Z"/>
                  <path class="st4" d="M1015.13,107.73c-18.64-10.95-36.27-14.91-53-15.11.18-7.08.34-14,.51-20.75,15.23-1.8,31.14-.84,47.78,5.17,1.53,9.75,3.1,19.96,4.72,30.68Z"/>
                  <path class="st5" d="M1021.1,148.36c-21.26-18.66-41.04-27.21-59.61-30.43.22-8.67.44-17.1.64-25.3,16.73.2,34.36,4.16,53,15.11,1.92,12.77,3.91,26.29,5.96,40.63Z"/>
                  <path class="st4" d="M1028.93,204.59c-24.84-31.35-47.42-47.2-68.28-55.14.29-10.86.57-21.36.83-31.53,18.56,3.22,38.35,11.77,59.61,30.43,2.5,17.43,5.11,36.12,7.84,56.23Z"/>
                </g>
              </g>
            </g>
          </g>
          <g>
            <polygon class="st5" points="686.77 76.91 693.43 76.91 731.84 58.32 664.18 58.32 634.08 58.1 624.1 76.91 654.32 76.91 686.77 76.91"/>
            <polygon class="st5" points="640.31 103.3 679.76 103.3 689.11 85.69 649.66 85.69 652.57 80.2 622.36 80.2 595.82 130.21 626.03 130.21 665.49 130.21 675.06 112.16 635.61 112.16 640.31 103.3"/>
            <polygon class="st5" points="791.36 58.45 728.5 88.65 744.71 58.1 705.47 76.99 677.25 130.19 825.94 58.45 791.36 58.45"/>
            <polygon class="st5" points="837.92 58.34 689.88 130.19 725.58 130.21 820.07 84.38 809.97 103.41 789.37 103.41 753.05 120.92 800.69 120.92 795.75 130.21 825.97 130.21 864.11 58.34 837.92 58.34"/>
          </g>
          <g>
            <path class="st5" d="M596.38,141.9v-8.98h2.98v1.09h-1.78v2.73h1.58v1.09h-1.58v2.99h1.78v1.09h-2.98Z"/>
            <path class="st5" d="M612.12,132.92l-1.45,8.98h-1.43l-1.45-8.98h1.19l.98,6.86.98-6.86h1.19Z"/>
            <path class="st5" d="M621.77,141.9h-1.2v-7.44c0-1.03.48-1.54,1.44-1.54h.9c.96,0,1.44.51,1.44,1.54v7.44h-1.2v-3.29h-1.38v3.29ZM623.15,137.52v-2.99c0-.35-.18-.53-.53-.53h-.33c-.35,0-.53.18-.53.53v2.99h1.38Z"/>
            <path class="st5" d="M635.59,137.26v-4.34h1.2v8.98h-1.2v-1.79l-1.29-4.09v5.88h-1.2v-8.98h1.2l1.29,4.34Z"/>
            <path class="st5" d="M647.46,138.61v-1.09h1.83v4.38h-2.35c-.93,0-1.39-.5-1.39-1.51v-5.93c0-1.03.46-1.54,1.39-1.54h.83c1.02,0,1.53.52,1.53,1.56v.98h-1.2v-.8c0-.43-.17-.65-.51-.65h-.3c-.35,0-.53.22-.53.65v5.5c0,.43.18.65.53.65h.81v-2.2h-.63Z"/>
            <path class="st5" d="M657.99,141.9v-8.98h2.98v1.09h-1.78v2.73h1.58v1.09h-1.58v2.99h1.78v1.09h-2.98Z"/>
            <path class="st5" d="M672.48,141.9h-2.85v-8.98h1.2v7.89h1.65v1.09Z"/>
            <path class="st5" d="M681.03,141.9v-8.98h1.2v8.98h-1.2Z"/>
            <path class="st5" d="M692.43,141.9c-.97,0-1.45-.51-1.45-1.53v-5.92c0-1.03.48-1.54,1.44-1.54h1.15c.96,0,1.44.51,1.44,1.54v5.92c0,1.02-.48,1.53-1.45,1.53h-1.13ZM692.72,140.81h.61c.32,0,.48-.18.48-.53v-5.75c0-.35-.18-.53-.54-.53h-.56c-.35,0-.53.18-.53.53v5.75c0,.35.18.53.54.53Z"/>
            <path class="st5" d="M706.26,137.26v-4.34h1.2v8.98h-1.2v-1.79l-1.29-4.09v5.88h-1.2v-8.98h1.2l1.29,4.34Z"/>
            <path class="st5" d="M726.05,132.92h2.35c.92,0,1.38.51,1.38,1.54v2.21c0,.78-.24,1.28-.71,1.49l.84,3.74h-1.14l-.79-3.63h-.73v3.63h-1.2v-8.98ZM727.25,137.25h.79c.36,0,.54-.22.54-.65v-1.94c0-.43-.18-.65-.54-.65h-.79v3.24Z"/>
            <path class="st5" d="M739.72,141.9h-1.2v-7.44c0-1.03.48-1.54,1.44-1.54h.9c.96,0,1.44.51,1.44,1.54v7.44h-1.2v-3.29h-1.38v3.29ZM741.1,137.52v-2.99c0-.35-.18-.53-.53-.53h-.33c-.35,0-.53.18-.53.53v2.99h1.38Z"/>
            <path class="st5" d="M754.67,139.8v.58c0,1.02-.48,1.53-1.44,1.53h-.78c-.96,0-1.44-.51-1.44-1.53v-5.93c0-1.02.48-1.53,1.44-1.53h.78c.96,0,1.44.51,1.44,1.53v1.01h-1.2v-.93c0-.35-.18-.53-.54-.53h-.24c-.32,0-.48.18-.48.53v5.75c0,.35.16.53.48.53h.3c.32,0,.48-.18.48-.53v-.49h1.2Z"/>
            <path class="st5" d="M763.36,141.9v-8.98h1.2v8.98h-1.2Z"/>
            <path class="st5" d="M775.83,137.26v-4.34h1.2v8.98h-1.2v-1.79l-1.29-4.09v5.88h-1.2v-8.98h1.2l1.29,4.34Z"/>
            <path class="st5" d="M787.7,138.61v-1.09h1.83v4.38h-2.35c-.93,0-1.39-.5-1.39-1.51v-5.93c0-1.03.46-1.54,1.39-1.54h.83c1.02,0,1.53.52,1.53,1.56v.98h-1.2v-.8c0-.43-.17-.65-.51-.65h-.3c-.35,0-.53.22-.53.65v5.5c0,.43.18.65.53.65h.81v-2.2h-.63Z"/>
            <path class="st5" d="M821.03,140.83v1.08h-3.23v-2.76c0-.15.01-.28.04-.38s.07-.19.13-.28.17-.21.33-.37l1.21-1.16c.09-.09.16-.17.22-.24.05-.07.09-.12.11-.17.02-.05.03-.09.04-.14s0-.12,0-.2v-1.66c0-.35-.17-.53-.51-.53h-.07c-.34,0-.51.18-.51.53v.93h-1.2v-1c0-1.03.48-1.54,1.44-1.54h.63c.96,0,1.44.51,1.44,1.54v2.15c0,.17-.02.31-.07.44-.05.13-.17.28-.36.46l-1.33,1.28c-.17.16-.26.27-.29.33-.03.06-.04.12-.04.18,0,.06,0,.14,0,.24v1.3h2.03Z"/>
            <path class="st5" d="M831.35,141.9c-.96,0-1.44-.51-1.44-1.54v-5.9c0-1.03.48-1.54,1.44-1.54h.84c.96,0,1.44.51,1.44,1.54v5.9c0,1.03-.48,1.54-1.44,1.54h-.84ZM831.59,134.01c-.32,0-.48.18-.48.53v5.75c0,.35.18.53.54.53h.3c.32,0,.48-.18.48-.53v-5.75c0-.35-.18-.53-.54-.53h-.3Z"/>
            <path class="st5" d="M842.5,134.91l-.28-.83c.31-.12.57-.28.79-.49.22-.21.39-.43.51-.68h.12l.79.43v8.56h-1.19v-7.22l-.75.23Z"/>
            <path class="st5" d="M854.69,141.9c-.96,0-1.44-.51-1.44-1.54v-5.9c0-1.03.48-1.54,1.44-1.54h.84c.96,0,1.44.51,1.44,1.54v5.9c0,1.03-.48,1.54-1.44,1.54h-.84ZM854.92,134.01c-.32,0-.48.18-.48.53v5.75c0,.35.18.53.54.53h.3c.32,0,.48-.18.48-.53v-5.75c0-.35-.18-.53-.54-.53h-.3Z"/>
          </g>
        </g>
      </g>
    </g>
  </g>
</svg>