<?xml version="1.0" encoding="UTF-8"?>
<svg id="_レイヤー_1" data-name="レイヤー_1" xmlns="http://www.w3.org/2000/svg" version="1.1" viewBox="0 0 1000 200">
  <!-- Generator: Adobe Illustrator 30.0.0, SVG Export Plug-In . SVG Version: 2.1.1 Build 123)  -->
  <defs>
    <style>
      .st0 {
        fill: #fff;
      }
    </style>
  </defs>
  <polygon class="st0" points="517.77 18.45 498.05 97.37 478.34 18.45 436.28 18.45 395.54 181.55 437.6 181.55 441.84 164.55 457.31 102.63 472.78 164.55 472.78 164.55 477.02 181.55 519.08 181.55 523.33 164.55 523.33 164.55 538.79 102.63 554.26 164.55 554.26 164.55 558.51 181.55 600.57 181.55 559.82 18.45 517.77 18.45"/>
  <polygon class="st0" points="916.36 18.45 885.67 63.06 854.99 18.45 804.17 18.45 815.87 35.45 815.87 35.45 860.27 100 804.17 181.55 854.99 181.55 866.69 164.55 866.69 164.55 885.67 136.94 904.66 164.55 904.66 164.55 916.36 181.55 967.18 181.55 911.08 100 955.48 35.45 955.48 35.45 967.18 18.45 916.36 18.45"/>
  <polygon class="st0" points="672.18 18.45 609.8 181.55 653.27 181.55 702.37 53.18 751.47 181.55 794.93 181.55 732.56 18.45 672.18 18.45"/>
  <path class="st0" d="M155.58,18.45h-60.38l-62.37,163.11h43.47L125.39,53.18l49.1,128.38h43.47L155.58,18.45h0Z"/>
  <path class="st0" d="M386.3,18.45h-137.23c-8.54,9.01-13.33,14.06-21.88,23.07v55.57c8.54,9.01,13.34,14.06,21.88,23.07h99.12v21.09h-121v40.31h137.23c8.54-9.01,13.33-14.06,21.88-23.07v-55.57c-8.54-9.01-13.34-14.06-21.88-23.07h-99.12v-21.09h121V18.45h0Z"/>
</svg>