<?xml version="1.0" encoding="UTF-8"?>
<svg xmlns="http://www.w3.org/2000/svg" xmlns:xlink="http://www.w3.org/1999/xlink" version="1.1" viewBox="0 0 1000 200">
  <!-- Generator: Adobe Illustrator 30.0.0, SVG Export Plug-In . SVG Version: 2.1.1 Build 123)  -->
  <defs>
    <style>
      .st0 {
        fill: none;
      }

      .st1 {
        fill: #da0012;
      }

      .st2 {
        mix-blend-mode: multiply;
        opacity: .3;
      }

      .st3 {
        isolation: isolate;
      }

      .st4 {
        fill: #231815;
      }

      .st5 {
        fill: #fff;
      }

      .st6 {
        clip-path: url(#clippath);
      }
    </style>
    <clipPath id="clippath">
      <path class="st0" d="M987.64,57.62l-18.84,35.51-32.52,21.28-11.33-24.14h12.19l11.25-7.35h-57.84l-.09.17h-25.54l13.52-25.48h109.21ZM888.68,86.42l-2.04,3.85h33.7l11.88,25.31,11.93,25.54h-36.04l-11.99-25.54h-22.92l-7.95,14.98h-25.54l23.42-44.14h25.54Z"/>
    </clipPath>
  </defs>
  <g class="st3">
    <g id="_レイヤー_1" data-name="レイヤー_1">
      <g>
        <g>
          <path class="st4" d="M228.38,57.62l-8.78,35.16-8.78-35.16h-18.73l-18.15,72.66h18.73l1.89-7.58,6.89-27.58,6.89,27.58h0l1.89,7.58h18.73l1.89-7.58h0l6.89-27.58,6.89,27.58h0l1.89,7.58h18.73l-18.15-72.66h-18.73ZM405.93,57.62l-13.67,19.88-13.67-19.88h-22.64l5.21,7.58h0l19.78,28.76-24.99,36.33h22.64s5.21-7.58,5.21-7.58h0l8.46-12.3,8.46,12.3h0l5.21,7.58h22.64l-24.99-36.33,19.78-28.76h0l5.21-7.58h-22.64ZM297.16,57.62l-27.78,72.67h19.36l21.87-57.19,21.87,57.19h19.36l-27.78-72.67h-26.9Z"/>
          <path class="st4" d="M67.04,57.62h-26.9l-27.78,72.67h19.36l21.87-57.19,21.87,57.19h19.36l-27.78-72.67h0Z"/>
          <path class="st4" d="M169.82,57.62h-61.13c-3.81,4.01-5.94,6.26-9.75,10.28v24.75c3.81,4.01,5.94,6.26,9.75,10.28h44.15v9.4h-53.9v17.96h61.13c3.81-4.01,5.94-6.26,9.75-10.28v-24.75c-3.81-4.01-5.94-6.26-9.75-10.28h-44.15v-9.4h53.9v-17.96h0Z"/>
        </g>
        <g>
          <path class="st4" d="M506.24,89.63c-.56,0-1.11-.21-1.54-.64l-27.66-27.66c-.85-.85-.85-2.23,0-3.08.85-.85,2.23-.85,3.08,0l27.66,27.66c.85.85.85,2.23,0,3.08-.42.42-.98.64-1.54.64Z"/>
          <path class="st4" d="M546.89,130.28c-.56,0-1.11-.21-1.54-.64l-27.66-27.66c-.85-.85-.85-2.23,0-3.08.85-.85,2.23-.85,3.08,0l27.66,27.66c.85.85.85,2.23,0,3.08-.42.42-.98.64-1.54.64Z"/>
          <path class="st4" d="M519.23,89.64c-.56,0-1.11-.21-1.54-.64-.85-.85-.85-2.23,0-3.08l27.66-27.66c.85-.85,2.23-.85,3.08,0,.85.85.85,2.23,0,3.08l-27.66,27.66c-.42.42-.98.64-1.54.64Z"/>
          <path class="st4" d="M478.59,130.28c-.56,0-1.11-.21-1.54-.64-.85-.85-.85-2.23,0-3.08l27.66-27.66c.85-.85,2.23-.85,3.08,0,.85.85.85,2.23,0,3.08l-27.66,27.66c-.42.42-.98.64-1.54.64Z"/>
        </g>
        <g>
          <path class="st1" d="M987.64,57.62l-18.84,35.51-32.52,21.28-11.33-24.14h12.19l11.25-7.35h-57.84l-.09.17h-25.54l13.52-25.48h109.21ZM888.68,86.42l-2.04,3.85h33.7l11.88,25.31,11.93,25.54h-36.04l-11.99-25.54h-22.92l-7.95,14.98h-25.54l23.42-44.14h25.54Z"/>
          <g class="st2">
            <g class="st6">
              <g>
                <g>
                  <path class="st4" d="M855.89,70.21c-2.51.52-4.92.82-7.22.86,1.07-1.59,2.15-3.2,3.23-4.83,2.35-.29,4.8-.82,7.34-1.57-1.12,1.86-2.23,3.71-3.34,5.53Z"/>
                  <path class="st5" d="M852.36,75.99c-2.47.27-4.83.3-7.08.06,1.12-1.63,2.24-3.29,3.38-4.98,2.3-.04,4.72-.34,7.22-.86-1.18,1.94-2.36,3.87-3.53,5.78Z"/>
                  <path class="st4" d="M848.63,82.02c-2.41-.02-4.71-.29-6.89-.85,1.17-1.68,2.35-3.38,3.53-5.11,2.25.24,4.61.21,7.08-.06-1.25,2.03-2.49,4.04-3.72,6.02Z"/>
                  <path class="st5" d="M844.7,88.29c-2.34-.35-4.56-.97-6.65-1.88,1.22-1.71,2.45-3.46,3.7-5.24,2.18.56,4.48.83,6.89.85-1.32,2.12-2.63,4.21-3.93,6.28Z"/>
                  <path class="st4" d="M840.55,94.82c-2.25-.72-4.38-1.73-6.36-3.06,1.27-1.74,2.56-3.53,3.86-5.35,2.09.92,4.31,1.54,6.65,1.88-1.39,2.21-2.78,4.38-4.15,6.53Z"/>
                </g>
                <g>
                  <path class="st5" d="M864.62,67.67c-3.02,1.1-5.94,1.96-8.73,2.55,1.11-1.83,2.23-3.67,3.34-5.53,2.82-.83,5.76-1.91,8.79-3.22-1.13,2.08-2.27,4.15-3.4,6.21Z"/>
                  <path class="st4" d="M861.01,74.23c-3,.86-5.89,1.46-8.65,1.76,1.17-1.91,2.35-3.83,3.53-5.78,2.8-.58,5.71-1.44,8.73-2.55-1.21,2.2-2.41,4.38-3.61,6.56Z"/>
                  <path class="st5" d="M857.16,81.16c-2.97.58-5.82.88-8.53.86,1.23-1.99,2.48-3.99,3.72-6.02,2.76-.3,5.65-.9,8.65-1.76-1.28,2.32-2.57,4.63-3.84,6.93Z"/>
                  <path class="st4" d="M853.06,88.48c-2.93.25-5.72.2-8.36-.19,1.3-2.07,2.61-4.16,3.93-6.28,2.71.02,5.56-.28,8.53-.86-1.37,2.46-2.74,4.9-4.1,7.33Z"/>
                  <path class="st5" d="M848.69,96.23c-2.86-.13-5.58-.59-8.13-1.41,1.37-2.14,2.76-4.32,4.15-6.53,2.64.39,5.43.44,8.36.19-1.46,2.6-2.92,5.19-4.38,7.75Z"/>
                </g>
                <g>
                  <path class="st4" d="M875.14,63.12c-3.63,1.78-7.14,3.31-10.53,4.55,1.13-2.06,2.26-4.13,3.4-6.21,3.38-1.46,6.88-3.2,10.49-5.16-1.12,2.28-2.24,4.55-3.36,6.82Z"/>
                  <path class="st5" d="M871.54,70.41c-3.64,1.56-7.16,2.85-10.54,3.82,1.2-2.17,2.41-4.36,3.61-6.56,3.39-1.23,6.9-2.77,10.53-4.55-1.2,2.43-2.4,4.86-3.6,7.29Z"/>
                  <path class="st4" d="M867.68,78.2c-3.65,1.29-7.16,2.3-10.52,2.95,1.28-2.29,2.56-4.61,3.84-6.93,3.38-.97,6.9-2.26,10.54-3.82-1.29,2.6-2.58,5.2-3.87,7.79Z"/>
                  <path class="st5" d="M863.51,86.55c-3.64.98-7.13,1.65-10.45,1.93,1.36-2.42,2.73-4.87,4.1-7.33,3.36-.65,6.87-1.66,10.52-2.95-1.39,2.79-2.78,5.57-4.16,8.35Z"/>
                  <path class="st4" d="M859.02,95.51c-3.61.6-7.07.87-10.33.72,1.45-2.56,2.91-5.14,4.38-7.75,3.32-.28,6.81-.95,10.45-1.93-1.5,3-3,5.98-4.49,8.96Z"/>
                </g>
                <g>
                  <path class="st5" d="M887.8,56.27c-4.34,2.54-8.57,4.85-12.65,6.85,1.12-2.27,2.24-4.55,3.36-6.82,4.04-2.2,8.21-4.68,12.49-7.37-1.06,2.45-2.13,4.9-3.2,7.35Z"/>
                  <path class="st4" d="M884.34,64.2c-4.4,2.35-8.68,4.45-12.8,6.21,1.2-2.42,2.4-4.85,3.6-7.29,4.09-2,8.31-4.31,12.65-6.85-1.15,2.64-2.3,5.28-3.45,7.93Z"/>
                  <path class="st5" d="M880.6,72.77c-4.46,2.12-8.77,3.96-12.92,5.43,1.29-2.59,2.58-5.19,3.87-7.79,4.12-1.76,8.4-3.86,12.8-6.21-1.25,2.86-2.49,5.71-3.74,8.57Z"/>
                  <path class="st4" d="M876.53,82.07c-4.5,1.83-8.85,3.36-13.01,4.48,1.39-2.77,2.78-5.56,4.16-8.35,4.15-1.47,8.47-3.31,12.92-5.43-1.35,3.1-2.71,6.2-4.07,9.3Z"/>
                  <path class="st5" d="M872.08,92.19c-4.54,1.48-8.9,2.62-13.06,3.32,1.5-2.98,2.99-5.96,4.49-8.96,4.16-1.12,8.51-2.65,13.01-4.48-1.48,3.37-2.96,6.74-4.45,10.12Z"/>
                </g>
                <g>
                  <path class="st4" d="M902.98,46.89c-5.18,3.34-10.25,6.5-15.18,9.38,1.07-2.45,2.13-4.9,3.2-7.35,4.83-3.04,9.79-6.33,14.85-9.78-.95,2.57-1.91,5.16-2.86,7.75Z"/>
                  <path class="st5" d="M899.85,55.33c-5.31,3.19-10.49,6.19-15.51,8.86,1.15-2.64,2.31-5.29,3.45-7.93,4.93-2.88,9.99-6.04,15.18-9.38-1.04,2.8-2.08,5.62-3.12,8.44Z"/>
                  <path class="st4" d="M896.43,64.57c-5.43,3-10.72,5.78-15.84,8.21,1.25-2.86,2.5-5.72,3.74-8.57,5.02-2.68,10.2-5.68,15.51-8.86-1.14,3.07-2.27,6.14-3.42,9.23Z"/>
                  <path class="st5" d="M892.68,74.7c-5.56,2.75-10.95,5.26-16.15,7.37,1.36-3.1,2.72-6.2,4.07-9.3,5.11-2.43,10.4-5.21,15.84-8.21-1.25,3.37-2.5,6.74-3.76,10.14Z"/>
                  <path class="st4" d="M888.52,85.88c-5.68,2.43-11.17,4.59-16.44,6.31,1.48-3.38,2.97-6.75,4.45-10.12,5.2-2.11,10.59-4.62,16.15-7.37-1.38,3.71-2.76,7.44-4.15,11.18Z"/>
                </g>
                <g>
                  <path class="st5" d="M921.17,34.95c-6.19,4.09-12.26,8.13-18.19,11.95.96-2.59,1.91-5.17,2.86-7.75,5.76-3.92,11.65-8.05,17.64-12.22-.77,2.66-1.54,5.33-2.31,8.02Z"/>
                  <path class="st4" d="M918.63,43.77c-6.39,3.98-12.67,7.9-18.77,11.56,1.05-2.82,2.09-5.64,3.12-8.44,5.93-3.82,12.01-7.86,18.19-11.95-.84,2.93-1.69,5.87-2.54,8.83Z"/>
                  <path class="st5" d="M915.81,53.53c-6.61,3.81-13.09,7.57-19.38,11.03,1.14-3.09,2.28-6.17,3.42-9.23,6.11-3.67,12.38-7.59,18.77-11.56-.93,3.23-1.87,6.49-2.81,9.76Z"/>
                  <path class="st4" d="M912.69,64.38c-6.84,3.59-13.53,7.12-20.01,10.32,1.26-3.39,2.51-6.77,3.76-10.14,6.29-3.47,12.77-7.22,19.38-11.03-1.04,3.59-2.08,7.21-3.13,10.85Z"/>
                  <path class="st5" d="M909.19,76.52c-7.09,3.29-13.99,6.51-20.66,9.36,1.39-3.74,2.77-7.47,4.15-11.18,6.48-3.2,13.17-6.73,20.01-10.32-1.16,4.02-2.32,8.06-3.5,12.14Z"/>
                </g>
                <g>
                  <path class="st4" d="M943.01,20.8c-7.4,4.62-14.7,9.42-21.84,14.14.77-2.69,1.54-5.36,2.31-8.02,6.87-4.79,13.88-9.64,20.99-14.34-.48,2.72-.97,5.46-1.45,8.22Z"/>
                  <path class="st5" d="M941.39,29.95c-7.72,4.49-15.33,9.2-22.76,13.82.85-2.96,1.7-5.9,2.54-8.83,7.14-4.73,14.44-9.53,21.84-14.14-.54,3.03-1.08,6.08-1.62,9.15Z"/>
                  <path class="st4" d="M939.57,40.2c-8.07,4.3-16.02,8.86-23.76,13.33.94-3.27,1.88-6.53,2.81-9.76,7.43-4.62,15.04-9.33,22.76-13.82-.6,3.39-1.2,6.8-1.82,10.25Z"/>
                  <path class="st5" d="M937.53,51.77c-8.46,4.03-16.76,8.37-24.84,12.61,1.05-3.64,2.09-7.26,3.13-10.85,7.75-4.47,15.69-9.02,23.76-13.33-.68,3.82-1.36,7.67-2.05,11.56Z"/>
                  <path class="st4" d="M935.2,64.92c-8.87,3.66-17.57,7.68-26.01,11.6,1.18-4.08,2.34-8.12,3.5-12.14,8.08-4.24,16.38-8.58,24.84-12.61-.77,4.33-1.54,8.72-2.33,13.15Z"/>
                </g>
                <g>
                  <path class="st5" d="M969.43,5.69c-8.94,4.54-17.76,9.71-26.42,15.11.49-2.76.97-5.5,1.45-8.22,8.25-5.46,16.64-10.72,25.13-15.44-.06,2.82-.11,5.67-.17,8.55Z"/>
                  <path class="st4" d="M969.23,15.38c-9.43,4.27-18.73,9.28-27.84,14.58.54-3.07,1.08-6.12,1.62-9.15,8.66-5.4,17.48-10.57,26.42-15.11-.07,3.19-.13,6.42-.2,9.68Z"/>
                  <path class="st5" d="M968.99,26.43c-9.99,3.87-19.81,8.65-29.41,13.77.61-3.45,1.22-6.87,1.82-10.25,9.11-5.29,18.4-10.31,27.84-14.58-.08,3.63-.16,7.32-.24,11.06Z"/>
                  <path class="st4" d="M968.71,39.18c-10.61,3.32-21.02,7.74-31.18,12.59.69-3.89,1.37-7.75,2.05-11.56,9.6-5.12,19.43-9.89,29.41-13.77-.09,4.18-.18,8.43-.28,12.75Z"/>
                  <path class="st5" d="M968.37,54.03c-11.31,2.54-22.39,6.45-33.17,10.88.78-4.43,1.56-8.81,2.33-13.15,10.16-4.85,20.58-9.27,31.18-12.59-.11,4.86-.22,9.81-.34,14.85Z"/>
                </g>
                <g>
                  <path class="st4" d="M1002.03-7.3c-11.09,3.04-21.97,7.59-32.61,12.99.06-2.88.12-5.73.17-8.55,10.02-5.58,20.24-10.44,30.64-14.06.59,3.14,1.19,6.35,1.8,9.62Z"/>
                  <path class="st5" d="M1004.08,3.93c-11.89,2.23-23.51,6.32-34.85,11.45.07-3.27.14-6.5.2-9.68,10.64-5.4,21.51-9.95,32.61-12.99.68,3.66,1.36,7.4,2.05,11.23Z"/>
                  <path class="st4" d="M1006.43,17.2c-12.82,1.11-25.3,4.52-37.44,9.23.08-3.74.16-7.42.24-11.06,11.34-5.13,22.96-9.21,34.85-11.45.78,4.31,1.56,8.73,2.35,13.27Z"/>
                  <path class="st5" d="M1009.17,33.12c-13.91-.48-27.4,1.97-40.46,6.06.1-4.32.19-8.56.28-12.75,12.14-4.71,24.63-8.13,37.44-9.23.9,5.15,1.81,10.45,2.74,15.92Z"/>
                  <path class="st4" d="M1012.4,52.55c-15.22-2.76-29.89-1.69-44.03,1.48.12-5.04.23-9.99.34-14.85,13.06-4.09,26.55-6.54,40.46-6.06,1.06,6.26,2.14,12.73,3.23,19.43Z"/>
                </g>
                <g>
                  <path class="st5" d="M836.17,101.59c-2.15-1.16-4.15-2.61-6.01-4.41,1.33-1.76,2.67-3.57,4.03-5.43,1.99,1.33,4.11,2.34,6.36,3.06-1.47,2.3-2.93,4.56-4.38,6.77Z"/>
                  <path class="st4" d="M831.54,108.6c-2.01-1.65-3.88-3.62-5.59-5.93,1.38-1.77,2.78-3.59,4.21-5.48,1.86,1.79,3.87,3.25,6.01,4.41-1.56,2.38-3.1,4.72-4.63,7.01Z"/>
                  <path class="st5" d="M826.65,115.81c-1.85-2.21-3.55-4.76-5.08-7.67,1.43-1.75,2.89-3.58,4.37-5.47,1.71,2.32,3.58,4.29,5.59,5.93-1.65,2.46-3.27,4.87-4.88,7.21Z"/>
                  <path class="st4" d="M821.51,123.2c-1.66-2.86-3.15-6.07-4.47-9.65,1.48-1.72,3-3.52,4.54-5.4,1.53,2.91,3.23,5.46,5.08,7.67-1.74,2.53-3.45,4.99-5.15,7.38Z"/>
                </g>
                <g>
                  <path class="st4" d="M844.01,104.41c-2.78-.58-5.4-1.5-7.84-2.82,1.45-2.22,2.91-4.48,4.38-6.77,2.56.82,5.27,1.27,8.13,1.41-1.57,2.76-3.12,5.49-4.68,8.19Z"/>
                  <path class="st5" d="M839.01,113.06c-2.67-1.1-5.16-2.57-7.47-4.46,1.53-2.29,3.07-4.62,4.63-7.01,2.45,1.32,5.07,2.24,7.84,2.82-1.68,2.92-3.34,5.8-5,8.65Z"/>
                  <path class="st4" d="M833.65,122.19c-2.52-1.72-4.86-3.82-7-6.38,1.61-2.35,3.24-4.75,4.88-7.21,2.31,1.89,4.8,3.36,7.47,4.46-1.8,3.09-3.58,6.13-5.36,9.13Z"/>
                  <path class="st5" d="M827.92,131.8c-2.34-2.44-4.49-5.28-6.41-8.6,1.69-2.39,3.41-4.85,5.15-7.38,2.14,2.55,4.48,4.66,7,6.38-1.93,3.26-3.84,6.46-5.74,9.61Z"/>
                </g>
                <g>
                  <path class="st5" d="M854.16,105.14c-3.57.16-6.96-.06-10.15-.73,1.55-2.7,3.11-5.43,4.68-8.19,3.27.15,6.72-.11,10.33-.72-1.62,3.22-3.24,6.43-4.86,9.63Z"/>
                  <path class="st4" d="M848.89,115.51c-3.5-.38-6.8-1.17-9.88-2.45,1.66-2.85,3.33-5.73,5-8.65,3.19.67,6.58.88,10.15.73-1.76,3.47-3.52,6.93-5.27,10.37Z"/>
                  <path class="st5" d="M843.16,126.69c-3.39-1.03-6.57-2.5-9.51-4.5,1.77-3,3.56-6.04,5.36-9.13,3.08,1.28,6.38,2.06,9.88,2.45-1.91,3.75-3.82,7.48-5.73,11.18Z"/>
                  <path class="st4" d="M836.92,138.75c-3.25-1.81-6.26-4.09-9-6.95,1.9-3.15,3.81-6.35,5.74-9.61,2.94,2,6.12,3.47,9.51,4.5-2.09,4.05-4.17,8.07-6.24,12.06Z"/>
                </g>
                <g>
                  <path class="st4" d="M867.21,103.24c-4.56,1.04-8.92,1.72-13.05,1.9,1.62-3.2,3.24-6.41,4.86-9.63,4.16-.7,8.52-1.84,13.06-3.32-1.62,3.68-3.24,7.36-4.87,11.05Z"/>
                  <path class="st5" d="M861.86,115.35c-4.55.51-8.89.61-12.97.16,1.75-3.44,3.51-6.89,5.27-10.37,4.13-.18,8.5-.86,13.05-1.9-1.78,4.03-3.57,8.07-5.35,12.1Z"/>
                  <path class="st4" d="M855.95,128.66c-4.52-.15-8.79-.76-12.78-1.97,1.91-3.7,3.81-7.43,5.73-11.18,4.08.45,8.42.35,12.97-.16-1.97,4.44-3.94,8.87-5.91,13.31Z"/>
                  <path class="st5" d="M849.39,143.35c-4.44-.98-8.62-2.46-12.47-4.61,2.07-3.99,4.15-8.01,6.24-12.06,3.99,1.21,8.27,1.82,12.78,1.97-2.18,4.9-4.37,9.8-6.56,14.69Z"/>
                </g>
                <g>
                  <path class="st5" d="M883.92,98.27c-5.79,2.02-11.38,3.75-16.71,4.97,1.63-3.68,3.25-7.37,4.87-11.05,5.27-1.72,10.77-3.88,16.44-6.31-1.53,4.11-3.06,8.24-4.61,12.39Z"/>
                  <path class="st4" d="M878.78,112.08c-5.89,1.5-11.55,2.67-16.92,3.27,1.79-4.04,3.57-8.07,5.35-12.1,5.33-1.22,10.92-2.95,16.71-4.97-1.7,4.58-3.42,9.18-5.14,13.81Z"/>
                  <path class="st5" d="M873,127.56c-5.97.83-11.68,1.28-17.06,1.1,1.97-4.44,3.95-8.87,5.91-13.31,5.37-.6,11.03-1.77,16.92-3.27-1.91,5.13-3.84,10.29-5.77,15.48Z"/>
                  <path class="st4" d="M866.47,145.03c-6.02-.04-11.74-.5-17.08-1.68,2.19-4.9,4.38-9.79,6.56-14.69,5.38.18,11.09-.27,17.06-1.1-2.16,5.79-4.34,11.61-6.53,17.47Z"/>
                </g>
                <g>
                  <path class="st4" d="M905.24,90.18c-7.34,2.89-14.47,5.7-21.33,8.09,1.54-4.15,3.08-8.28,4.61-12.39,6.67-2.85,13.58-6.07,20.66-9.36-1.3,4.52-2.62,9.07-3.94,13.66Z"/>
                  <path class="st5" d="M900.77,105.68c-7.59,2.34-14.95,4.61-22,6.4,1.72-4.63,3.44-9.23,5.14-13.81,6.86-2.4,13.99-5.2,21.33-8.09-1.48,5.12-2.97,10.28-4.47,15.5Z"/>
                  <path class="st4" d="M895.65,123.4c-7.85,1.62-15.44,3.16-22.65,4.16,1.94-5.19,3.86-10.35,5.77-15.48,7.04-1.79,14.4-4.06,22-6.4-1.69,5.85-3.39,11.76-5.12,17.73Z"/>
                  <path class="st5" d="M889.74,143.88c-8.11.64-15.91,1.21-23.27,1.16,2.19-5.86,4.37-11.68,6.53-17.47,7.21-1,14.8-2.54,22.65-4.16-1.95,6.74-3.92,13.57-5.91,20.47Z"/>
                </g>
                <g>
                  <path class="st5" d="M932.53,79.99c-9.33,3.13-18.46,6.71-27.29,10.19,1.32-4.59,2.64-9.15,3.94-13.66,8.44-3.92,17.14-7.95,26.01-11.6-.88,4.96-1.77,9.99-2.67,15.08Z"/>
                  <path class="st4" d="M929.44,97.46c-9.83,2.39-19.42,5.36-28.66,8.21,1.5-5.21,3-10.38,4.47-15.5,8.83-3.47,17.96-7.06,27.29-10.19-1.02,5.74-2.05,11.56-3.09,17.47Z"/>
                  <path class="st5" d="M925.81,117.94c-10.37,1.36-20.47,3.47-30.16,5.46,1.72-5.97,3.43-11.88,5.12-17.73,9.24-2.85,18.84-5.82,28.66-8.21-1.19,6.71-2.4,13.54-3.63,20.48Z"/>
                  <path class="st4" d="M921.5,142.27c-10.97-.09-21.62.81-31.76,1.6,1.99-6.9,3.97-13.73,5.91-20.47,9.68-1.99,19.78-4.1,30.16-5.46-1.41,7.96-2.85,16.07-4.31,24.33Z"/>
                </g>
                <g>
                  <path class="st4" d="M967.96,71.55c-12.11,1.43-23.95,4.6-35.43,8.44.9-5.09,1.79-10.12,2.67-15.08,10.78-4.44,21.86-8.35,33.17-10.88-.13,5.72-.27,11.56-.41,17.52Z"/>
                  <path class="st5" d="M967.44,92.54c-13.04-.15-25.75,1.94-38.01,4.92,1.05-5.91,2.08-11.73,3.09-17.47,11.47-3.84,23.32-7.01,35.43-8.44-.16,6.83-.33,13.82-.51,20.99Z"/>
                  <path class="st4" d="M966.79,118.13c-14.12-2.45-27.83-1.92-40.98-.19,1.23-6.94,2.44-13.76,3.63-20.48,12.26-2.98,24.97-5.08,38.01-4.92-.21,8.29-.42,16.82-.65,25.59Z"/>
                  <path class="st5" d="M965.95,150.02c-15.39-5.86-30.26-7.63-44.45-7.75,1.46-8.27,2.9-16.38,4.31-24.33,13.16-1.73,26.87-2.26,40.98.19-.27,10.28-.55,20.9-.84,31.89Z"/>
                </g>
                <g>
                  <path class="st5" d="M1016.28,76.79c-16.83-6.08-32.92-7.05-48.33-5.23.14-5.96.28-11.8.41-17.52,14.14-3.17,28.81-4.23,44.03-1.48,1.27,7.76,2.56,15.83,3.88,24.24Z"/>
                  <path class="st4" d="M1021.05,107.82c-18.86-11.08-36.69-15.08-53.61-15.28.18-7.16.35-14.16.51-20.99,15.4-1.82,31.49-.85,48.33,5.23,1.55,9.86,3.14,20.19,4.77,31.03Z"/>
                  <path class="st5" d="M1027.08,148.92c-21.5-18.88-41.51-27.52-60.29-30.78.23-8.77.44-17.3.65-25.59,16.92.2,34.75,4.2,53.61,15.28,1.94,12.92,3.95,26.6,6.03,41.1Z"/>
                  <path class="st4" d="M1035.01,205.79c-25.13-31.71-47.97-47.74-69.06-55.77.3-10.99.58-21.61.84-31.89,18.78,3.26,38.79,11.91,60.29,30.78,2.53,17.63,5.16,36.54,7.93,56.87Z"/>
                </g>
              </g>
            </g>
          </g>
          <g>
            <polygon class="st4" points="688.92 76.65 695.65 76.65 734.5 57.84 666.07 57.84 635.62 57.62 625.53 76.65 656.09 76.65 688.92 76.65"/>
            <polygon class="st4" points="641.93 103.34 681.83 103.34 691.28 85.53 651.38 85.53 654.33 79.97 623.76 79.97 596.92 130.56 627.48 130.56 667.39 130.56 677.07 112.3 637.17 112.3 641.93 103.34"/>
            <polygon class="st4" points="794.71 57.98 731.13 88.51 747.52 57.62 707.84 76.73 679.29 130.53 829.69 57.98 794.71 57.98"/>
            <polygon class="st4" points="841.8 57.87 692.06 130.53 728.17 130.56 823.75 84.2 813.54 103.45 792.69 103.45 755.96 121.16 804.14 121.16 799.15 130.56 829.72 130.56 868.29 57.87 841.8 57.87"/>
          </g>
          <g>
            <path class="st4" d="M597.49,142.38v-9.09h3.01v1.1h-1.8v2.76h1.59v1.1h-1.59v3.02h1.8v1.1h-3.01Z"/>
            <path class="st4" d="M613.41,133.3l-1.47,9.09h-1.44l-1.47-9.09h1.2l.99,6.93.99-6.93h1.2Z"/>
            <path class="st4" d="M623.17,142.38h-1.21v-7.53c0-1.04.48-1.56,1.45-1.56h.91c.97,0,1.46.52,1.46,1.56v7.53h-1.22v-3.33h-1.39v3.33ZM624.56,137.95v-3.02c0-.35-.18-.53-.53-.53h-.33c-.35,0-.53.18-.53.53v3.02h1.39Z"/>
            <path class="st4" d="M637.15,137.69v-4.39h1.21v9.09h-1.21v-1.81l-1.3-4.14v5.95h-1.21v-9.09h1.21l1.3,4.39Z"/>
            <path class="st4" d="M649.16,139.05v-1.1h1.85v4.43h-2.38c-.94,0-1.4-.51-1.4-1.53v-6c0-1.04.47-1.56,1.4-1.56h.84c1.03,0,1.54.53,1.54,1.58v.99h-1.21v-.81c0-.44-.17-.66-.52-.66h-.3c-.35,0-.53.22-.53.66v5.57c0,.44.18.66.53.66h.82v-2.23h-.63Z"/>
            <path class="st4" d="M659.81,142.38v-9.09h3.01v1.1h-1.8v2.76h1.59v1.1h-1.59v3.02h1.8v1.1h-3.01Z"/>
            <path class="st4" d="M674.46,142.38h-2.88v-9.09h1.21v7.98h1.67v1.1Z"/>
            <path class="st4" d="M683.11,142.38v-9.09h1.21v9.09h-1.21Z"/>
            <path class="st4" d="M694.64,142.38c-.98,0-1.47-.51-1.47-1.54v-5.98c0-1.04.48-1.56,1.45-1.56h1.16c.97,0,1.45.52,1.45,1.56v5.98c0,1.03-.49,1.54-1.47,1.54h-1.14ZM694.94,141.28h.62c.32,0,.48-.18.48-.53v-5.82c0-.35-.18-.53-.54-.53h-.57c-.35,0-.53.18-.53.53v5.82c0,.35.18.53.54.53Z"/>
            <path class="st4" d="M708.63,137.69v-4.39h1.21v9.09h-1.21v-1.81l-1.3-4.14v5.95h-1.21v-9.09h1.21l1.3,4.39Z"/>
            <path class="st4" d="M728.64,133.3h2.38c.93,0,1.39.52,1.39,1.56v2.24c0,.79-.24,1.3-.72,1.51l.85,3.78h-1.15l-.8-3.67h-.73v3.67h-1.21v-9.09ZM729.86,137.68h.8c.36,0,.54-.22.54-.66v-1.96c0-.44-.18-.66-.54-.66h-.8v3.28Z"/>
            <path class="st4" d="M742.47,142.38h-1.21v-7.53c0-1.04.48-1.56,1.45-1.56h.91c.97,0,1.46.52,1.46,1.56v7.53h-1.22v-3.33h-1.39v3.33ZM743.87,137.95v-3.02c0-.35-.18-.53-.53-.53h-.33c-.35,0-.53.18-.53.53v3.02h1.39Z"/>
            <path class="st4" d="M757.59,140.26v.58c0,1.03-.48,1.54-1.45,1.54h-.78c-.97,0-1.45-.51-1.45-1.54v-6c0-1.03.48-1.54,1.45-1.54h.78c.97,0,1.45.51,1.45,1.54v1.02h-1.21v-.94c0-.35-.18-.53-.54-.53h-.24c-.32,0-.48.18-.48.53v5.82c0,.35.16.53.48.53h.3c.32,0,.48-.18.48-.53v-.49h1.21Z"/>
            <path class="st4" d="M766.38,142.38v-9.09h1.21v9.09h-1.21Z"/>
            <path class="st4" d="M779,137.69v-4.39h1.21v9.09h-1.21v-1.81l-1.3-4.14v5.95h-1.21v-9.09h1.21l1.3,4.39Z"/>
            <path class="st4" d="M791,139.05v-1.1h1.85v4.43h-2.38c-.94,0-1.4-.51-1.4-1.53v-6c0-1.04.47-1.56,1.4-1.56h.84c1.03,0,1.54.53,1.54,1.58v.99h-1.21v-.81c0-.44-.17-.66-.52-.66h-.3c-.35,0-.53.22-.53.66v5.57c0,.44.18.66.53.66h.82v-2.23h-.63Z"/>
            <path class="st4" d="M824.72,141.29v1.09h-3.26v-2.8c0-.15.01-.28.04-.38s.07-.2.13-.28.18-.21.34-.37l1.23-1.18c.09-.09.17-.17.22-.24.06-.07.09-.12.11-.17.02-.05.03-.09.04-.15s0-.12,0-.2v-1.68c0-.35-.17-.53-.52-.53h-.08c-.35,0-.52.18-.52.53v.94h-1.21v-1.01c0-1.04.48-1.56,1.45-1.56h.63c.97,0,1.45.52,1.45,1.56v2.18c0,.17-.02.32-.07.44-.05.13-.17.28-.36.47l-1.34,1.29c-.17.16-.27.27-.29.33-.03.06-.04.12-.04.18,0,.06,0,.14,0,.24v1.32h2.05Z"/>
            <path class="st4" d="M835.16,142.38c-.97,0-1.45-.52-1.45-1.56v-5.97c0-1.04.48-1.56,1.45-1.56h.85c.97,0,1.46.52,1.46,1.56v5.97c0,1.04-.49,1.56-1.46,1.56h-.85ZM835.4,134.4c-.32,0-.48.18-.48.53v5.82c0,.35.18.53.54.53h.3c.32,0,.48-.18.48-.53v-5.82c0-.35-.18-.53-.54-.53h-.3Z"/>
            <path class="st4" d="M846.43,135.31l-.28-.84c.31-.12.58-.28.8-.49.22-.21.39-.44.52-.68h.13l.8.43v8.65h-1.2v-7.3l-.76.23Z"/>
            <path class="st4" d="M858.76,142.38c-.97,0-1.45-.52-1.45-1.56v-5.97c0-1.04.48-1.56,1.45-1.56h.85c.97,0,1.46.52,1.46,1.56v5.97c0,1.04-.49,1.56-1.46,1.56h-.85ZM859,134.4c-.32,0-.48.18-.48.53v5.82c0,.35.18.53.54.53h.3c.32,0,.48-.18.48-.53v-5.82c0-.35-.18-.53-.54-.53h-.3Z"/>
          </g>
        </g>
      </g>
    </g>
  </g>
</svg>